Coordinates
version=1
nRows=9
nColumns=32
inDegrees=yes

Units are S.I. units (second, meters, Newtons, ...)
If the header above contains a line with 'inDegrees', this indicates whether rotational values are in degrees (yes) or radians (no).

endheader
time	pelvis_tilt	pelvis_list	pelvis_rotation	pelvis_tx	pelvis_ty	pelvis_tz	hip_flexion_r	hip_adduction_r	hip_rotation_r	knee_angle_r	knee_adduction_r	med_cond_adduction_r	lat_cond_adduction_r	patella_r_constrained_knee_angle	hip_flexion_l	hip_adduction_l	hip_rotation_l	knee_angle_l	knee_adduction_l	med_cond_adduction_l	lat_cond_adduction_l	patella_l_constrained_knee_angle	lumbar_extension	lumbar_bending	lumbar_rotation	ankle_angle_r	subtalar_angle_r	mtp_angle_r	ankle_angle_l	subtalar_angle_l	mtp_angle_l
      1.58000000	    -16.11839993	      1.00532729	      3.91997569	     -0.56924098	      0.67220602	      0.36059472	     45.80314907	     -0.51004706	      2.26065684	    -12.86888194	     -5.80515029	     -0.00000000	     -0.00000000	     -0.22460436	      7.55018626	     -0.08212374	     -1.79347032	    -25.83351262	     -4.62769720	     -0.00000000	     -0.00000000	     -0.45087985	      0.63897820	     -4.40455881	    -10.02596659	     -0.48832233	      7.33725597	      0.00000000	     11.92695439	     11.99018590	      0.00000000
      1.58500000	    -16.06206659	      1.11396539	      3.86933635	     -0.56181695	      0.67118593	      0.36113905	     45.77679561	     -0.42112036	      2.40922960	    -13.26356387	     -5.76212597	      0.00000000	      0.00000000	     -0.23149286	      7.43990805	     -0.23661339	     -1.64684986	    -26.90906927	     -4.27673025	      0.00000000	      0.00000000	     -0.46965186	      0.73724145	     -4.31132050	    -10.15566528	     -0.30813400	      7.18545710	     -0.00000000	     11.65481432	     10.83342451	      0.00000000
      1.59000000	    -15.84502887	      1.07129735	      3.76470818	     -0.55425673	      0.67037214	      0.36171098	     45.61866223	     -0.12956353	      2.27335524	    -13.86739555	     -5.77424438	      0.00000000	      0.00000000	     -0.24203171	      7.19361882	     -0.59467215	     -1.53941791	    -28.03562441	     -3.90260637	      0.00000000	      0.00000000	     -0.48931395	      0.67561813	     -3.90133710	     -9.86557329	     -1.39128091	      7.95840995	     -0.00000000	     10.64307436	     11.61180155	     -0.00000000
      1.59500000	    -15.75871476	      1.06553336	      3.68484129	     -0.54679698	      0.66946902	      0.36227076	     45.58676753	      0.10585901	      2.37364701	    -14.54432471	     -5.72304250	     -0.00000000	     -0.00000000	     -0.25384635	      7.23788323	     -0.89246722	     -1.28816572	    -29.41301909	     -3.44297858	      0.00000000	      0.00000000	     -0.51335403	      0.74184236	     -3.58874191	     -9.82988634	     -2.28380713	      8.48493121	      0.00000000	      9.57946938	     11.89782916	     -0.00000000
      1.60000000	    -15.61352441	      1.01081568	      3.59309119	     -0.53933866	      0.66863224	      0.36283248	     45.52066907	      0.42121540	      2.43787649	    -15.37633418	     -5.72892700	     -0.00000000	     -0.00000000	     -0.26836766	      7.31415158	     -1.25641310	     -0.96963247	    -30.94420903	     -2.91901966	     -0.00000000	     -0.00000000	     -0.54007833	      0.73894866	     -3.20077323	     -9.81382025	     -2.73107856	      8.58275530	      0.00000000	      8.86948553	     11.48407064	     -0.00000000
      1.60500000	    -15.50672409	      0.92085506	      3.46525228	     -0.53195407	      0.66779931	      0.36342455	     45.49494696	      0.81163036	      2.64426783	    -16.27878897	     -5.74213304	      0.00000000	      0.00000000	     -0.28411847	      7.55086697	     -1.65412267	     -0.64659107	    -32.65502894	     -2.36912417	     -0.00000000	     -0.00000000	     -0.56993777	      0.74021266	     -2.76836313	     -9.70394531	     -3.47326695	      8.45767846	      0.00000000	      7.78416954	     10.87844863	     -0.00000000
      1.61000000	    -15.43457065	      0.84101466	      3.36756145	     -0.52461164	      0.66701377	      0.36391056	     45.55355616	      1.14106791	      2.84568612	    -17.33437863	     -5.69482326	     -0.00000000	     -0.00000000	     -0.30254198	      7.93005518	     -2.00989398	     -0.18569936	    -34.50697461	     -1.73678337	      0.00000000	      0.00000000	     -0.60226032	      0.88997077	     -2.33061173	     -9.54712789	     -4.54656024	      8.80376567	     -0.00000000	      5.98141914	     11.19856713	     -0.00000000
      1.61500000	    -15.33919350	      0.69229567	      3.22935713	     -0.51733116	      0.66628565	      0.36445594	     45.58098695	      1.58584826	      3.12555997	    -18.42045358	     -5.69356835	      0.00000000	      0.00000000	     -0.32149756	      8.38780787	     -2.46308869	      0.22512544	    -36.50335880	     -1.08416120	      0.00000000	      0.00000000	     -0.63710380	      0.95105582	     -1.82572073	     -9.39651370	     -5.15904107	      8.62481166	      0.00000000	      4.64783000	     10.79199189	      0.00000000
      1.62000000	    -15.25407448	      0.49140934	      3.05585858	     -0.51012584	      0.66559509	      0.36502115	     45.63549418	      2.11295022	      3.48951283	    -19.59014709	     -5.69767829	      0.00000000	      0.00000000	     -0.34191257	      8.94880996	     -2.98391141	      0.66504899	    -38.60529809	     -0.36390975	      0.00000000	      0.00000000	     -0.67378956	      1.01140720	     -1.21162397	     -9.28275314	     -5.51408888	      8.29231860	      0.00000000	      3.49730338	     10.13082064	      0.00000000
